<?xml version="1.0" encoding="UTF-8" standalone="no"?>
<svg
   xmlns:dc="http://purl.org/dc/elements/1.1/"
   xmlns:cc="http://creativecommons.org/ns#"
   xmlns:rdf="http://www.w3.org/1999/02/22-rdf-syntax-ns#"
   xmlns:svg="http://www.w3.org/2000/svg"
   xmlns="http://www.w3.org/2000/svg"
   xmlns:sodipodi="http://sodipodi.sourceforge.net/DTD/sodipodi-0.dtd"
   xmlns:inkscape="http://www.inkscape.org/namespaces/inkscape"
   width="538.37109"
   stroke-miterlimit="10"
   font-weight="normal"
   height="252.52461"
   font-style="normal"
   font-size="12px"
   id="svg2"
   version="1.1"
   inkscape:version="0.91 r13725"
   sodipodi:docname="amphetamine.svg"
   style="font-style:normal;font-weight:normal;font-size:12px;font-family:Dialog;color-interpolation:auto;fill:#000000;fill-opacity:1;stroke:#000000;stroke-width:1;stroke-linecap:square;stroke-linejoin:miter;stroke-miterlimit:10;stroke-dasharray:none;stroke-dashoffset:0;stroke-opacity:1;color-rendering:auto;image-rendering:auto;shape-rendering:auto;text-rendering:auto">
  <metadata
     id="metadata76">
    <rdf:RDF>
      <cc:Work
         rdf:about="">
        <dc:format>image/svg+xml</dc:format>
        <dc:type
           rdf:resource="http://purl.org/dc/dcmitype/StillImage" />
        <dc:title></dc:title>
      </cc:Work>
    </rdf:RDF>
  </metadata>
  <sodipodi:namedview
     pagecolor="#ffffff"
     bordercolor="#666666"
     borderopacity="1"
     objecttolerance="10"
     gridtolerance="10"
     guidetolerance="10"
     inkscape:pageopacity="0"
     inkscape:pageshadow="2"
     inkscape:window-width="1920"
     inkscape:window-height="1058"
     id="namedview74"
     showgrid="false"
     fit-margin-top="10"
     fit-margin-left="10"
     fit-margin-right="10"
     fit-margin-bottom="10"
     inkscape:zoom="0.51442018"
     inkscape:cx="238.81505"
     inkscape:cy="-1.0589488"
     inkscape:window-x="-8"
     inkscape:window-y="-8"
     inkscape:window-maximized="1"
     inkscape:current-layer="svg2" />
  <!--Generated by Marvin with Batik SVG Generator-->
  <defs
     id="genericDefs" />
  <g
     id="g5"
     transform="translate(-28.753707,-173.574)">
    <defs
       id="1096970553859-defs1">
      <clipPath
         clipPathUnits="userSpaceOnUse"
         id="1096970553793-clipPath1">
        <path
           d="M 0,0 800,0 800,600 0,600 0,0 Z"
           id="path9"
           inkscape:connector-curvature="0" />
      </clipPath>
      <clipPath
         clipPathUnits="userSpaceOnUse"
         id="1096970553770-clipPath1">
        <path
           d="m 410.0423,212.0509 c -23.1687,0 -41.9507,18.7819 -41.9507,41.9507 0,23.1687 18.782,41.9507 41.9507,41.9507 23.1687,0 41.9507,-18.782 41.9507,-41.9507 0,-23.1688 -18.782,-41.9507 -41.9507,-41.9507 z"
           id="path12"
           inkscape:connector-curvature="0" />
      </clipPath>
      <clipPath
         clipPathUnits="userSpaceOnUse"
         id="1096970553326-clipPath1">
        <path
           d="m -488.2966,-177.7419 800,0 0,600 -800,0 0,-600 z"
           id="path15"
           inkscape:connector-curvature="0" />
      </clipPath>
      <clipPath
         clipPathUnits="userSpaceOnUse"
         id="1096970553845-clipPath1">
        <path
           d="m -539.156,-197.4517 800,0 0,600 -800,0 0,-600 z"
           id="path18"
           inkscape:connector-curvature="0" />
      </clipPath>
    </defs>
    <g
       id="g20"
       style="text-rendering:geometricPrecision">
      <path
         d="m 132.4545,226.0794 c 1.1029,-0.6368 1.4806,-2.0465 0.8437,-3.1495 -0.6368,-1.1029 -2.0465,-1.4806 -3.1494,-0.8437 l -69.0322,39.8597 c -1.1029,0.6368 -1.4806,2.0465 -0.8437,3.1494 0.6368,1.103 2.0465,1.4806 3.1494,0.8438 z m 1.9959,-23.3384 c 1.1029,-0.6368 1.4806,-2.0466 0.8438,-3.1495 -0.6369,-1.1029 -2.0466,-1.4806 -3.1495,-0.8437 l -92.2378,53.2588 c -1.1029,0.6368 -1.4806,2.0465 -0.8438,3.1495 0.6369,1.1029 2.0466,1.4806 3.1495,0.8437 z"
         clip-path="url(#1096970553793-clipPath1)"
         id="path22"
         inkscape:connector-curvature="0"
         style="stroke:none" />
    </g>
    <g
       id="g24"
       style="text-rendering:geometricPrecision">
      <path
         d="m 38.7542,254.0032 0,106.5306 c 0,1.2735 1.032,2.3055 2.3055,2.3055 1.2736,0 2.3056,-1.032 2.3056,-2.3055 l 0,-106.5306 c 0,-1.2736 -1.032,-2.3056 -2.3056,-2.3056 -1.2735,0 -2.3055,1.032 -2.3055,2.3056 z"
         clip-path="url(#1096970553793-clipPath1)"
         id="path26"
         inkscape:connector-curvature="0"
         style="stroke:none" />
    </g>
    <g
       id="g28"
       style="text-rendering:geometricPrecision">
      <path
         d="m 63.4223,348.5978 c -1.1029,-0.6368 -2.5126,-0.2591 -3.1494,0.8438 -0.6369,1.1029 -0.2592,2.5127 0.8437,3.1495 l 69.0322,39.8597 c 1.1029,0.6368 2.5126,0.2591 3.1494,-0.8438 0.6369,-1.1029 0.2592,-2.5126 -0.8437,-3.1494 z m -21.2097,9.9393 c -1.1029,-0.6368 -2.5126,-0.2591 -3.1495,0.8438 -0.6368,1.1029 -0.2591,2.5126 0.8438,3.1495 l 92.2378,53.2588 c 1.1029,0.6368 2.5126,0.2592 3.1495,-0.8438 0.6368,-1.1029 0.2591,-2.5126 -0.8438,-3.1494 z"
         clip-path="url(#1096970553793-clipPath1)"
         id="path30"
         inkscape:connector-curvature="0"
         style="stroke:none" />
    </g>
    <g
       id="g32"
       style="text-rendering:geometricPrecision">
      <path
         d="m 134.4503,415.7893 92.2507,-53.2588 c 1.103,-0.6368 1.4808,-2.0465 0.844,-3.1495 -0.6368,-1.103 -2.0465,-1.4807 -3.1494,-0.8439 l -92.2508,53.2588 c -1.1029,0.6367 -1.4807,2.0465 -0.8439,3.1494 0.6368,1.103 2.0465,1.4807 3.1494,0.844 z"
         clip-path="url(#1096970553793-clipPath1)"
         id="path34"
         inkscape:connector-curvature="0"
         style="stroke:none" />
    </g>
    <g
       id="g36"
       style="text-rendering:geometricPrecision">
      <path
         d="m 204.0296,347.1353 c 0,1.2735 1.032,2.3055 2.3056,2.3055 1.2736,0 2.3055,-1.032 2.3055,-2.3055 l 0,-79.7336 c 0,-1.2736 -1.0319,-2.3056 -2.3055,-2.3056 -1.2736,0 -2.3056,1.032 -2.3056,2.3056 z m 19.2132,13.3985 c 0,1.2735 1.0319,2.3055 2.3055,2.3055 1.2736,0 2.3056,-1.032 2.3056,-2.3055 l 0,-106.5306 c 0,-1.2736 -1.032,-2.3056 -2.3056,-2.3056 -1.2736,0 -2.3055,1.032 -2.3055,2.3056 z"
         clip-path="url(#1096970553793-clipPath1)"
         id="path38"
         inkscape:connector-curvature="0"
         style="stroke:none" />
    </g>
    <g
       id="g40"
       style="text-rendering:geometricPrecision">
      <path
         d="m 226.701,252.0065 -92.2507,-53.2588 c -1.1029,-0.6368 -2.5127,-0.259 -3.1494,0.8439 -0.6368,1.103 -0.259,2.5127 0.8439,3.1495 l 92.2508,53.2588 c 1.1029,0.6368 2.5126,0.259 3.1494,-0.844 0.6368,-1.1029 0.259,-2.5126 -0.844,-3.1494 z"
         clip-path="url(#1096970553793-clipPath1)"
         id="path42"
         inkscape:connector-curvature="0"
         style="stroke:none" />
    </g>
    <g
       id="g44"
       style="fill:#333399;stroke:#333399;text-rendering:geometricPrecision">
      <path
         d="m 411.1951,255.9982 72.6604,-41.9513 c 1.1029,-0.6368 1.4806,-2.0465 0.8438,-3.1495 -0.6368,-1.1029 -2.0465,-1.4806 -3.1494,-0.8438 l -72.6604,41.9513 c -1.1029,0.6368 -1.4807,2.0465 -0.8439,3.1495 0.6368,1.1029 2.0465,1.4806 3.1495,0.8438 z"
         clip-path="url(#1096970553793-clipPath1)"
         id="path46"
         inkscape:connector-curvature="0"
         style="stroke:none" />
      <path
         d="m 411.1951,255.9982 72.6604,-41.9513 c 1.1029,-0.6368 1.4806,-2.0465 0.8438,-3.1495 -0.6368,-1.1029 -2.0465,-1.4806 -3.1494,-0.8438 l -72.6604,41.9513 c -1.1029,0.6368 -1.4807,2.0465 -0.8439,3.1495 0.6368,1.1029 2.0465,1.4806 3.1495,0.8438 z"
         clip-path="url(#1096970553770-clipPath1)"
         id="path48"
         inkscape:connector-curvature="0"
         style="fill:#000000;stroke:none" />
    </g>
    <g
       id="g50"
       style="text-rendering:geometricPrecision">
      <path
         d="m 226.7011,255.9998 92.2465,-53.2596 c 1.103,-0.6368 1.4807,-2.0465 0.8439,-3.1494 -0.6368,-1.103 -2.0465,-1.4807 -3.1495,-0.8439 l -92.2465,53.2596 c -1.1029,0.6368 -1.4806,2.0465 -0.8438,3.1495 0.6367,1.1029 2.0465,1.4807 3.1494,0.8438 z"
         clip-path="url(#1096970553793-clipPath1)"
         id="path52"
         inkscape:connector-curvature="0"
         style="stroke:none" />
    </g>
    <g
       id="g54"
       style="text-rendering:geometricPrecision">
      <path
         d="m 316.6421,202.7402 92.2474,53.258 c 1.103,0.6368 2.5127,0.2591 3.1495,-0.8439 0.6368,-1.1029 0.259,-2.5126 -0.844,-3.1494 l -92.2474,-53.258 c -1.103,-0.6368 -2.5127,-0.2591 -3.1494,0.8439 -0.6368,1.103 -0.2591,2.5127 0.8439,3.1494 z"
         clip-path="url(#1096970553793-clipPath1)"
         id="path56"
         inkscape:connector-curvature="0"
         style="stroke:none" />
    </g>
    <g
       id="g58"
       style="text-rendering:geometricPrecision">
      <path
         d="m 407.7367,254.0016 9e-4,97.2954 c 0,1.2736 1.032,2.3056 2.3056,2.3056 1.2735,-10e-5 2.3055,-1.032 2.3055,-2.3056 l -9e-4,-97.2954 c 0,-1.2736 -1.0319,-2.3056 -2.3055,-2.3056 -1.2736,0 -2.3056,1.032 -2.3056,2.3056 z"
         clip-path="url(#1096970553793-clipPath1)"
         id="path60"
         inkscape:connector-curvature="0"
         style="stroke:none" />
    </g>
    <g
       id="g62"
       style="fill:#ffffff;stroke:#ffffff;text-rendering:geometricPrecision">
      <path
         d="m 500.3806,183.574 c -4.7408,0 -8.584,3.8431 -8.584,8.5839 l 0,17.168 c 0,4.7408 3.8432,8.584 8.584,8.584 l 31.6914,0 c 4.7408,0 8.584,-3.8432 8.584,-8.584 l 0,14.9198 c 0,4.8567 3.6867,8.7939 8.2344,8.7939 4.5477,0 8.2344,-3.9372 8.2344,-8.7939 l 0,-17.5879 c 0,-4.8568 -3.6867,-8.794 -8.2344,-8.794 -4.5477,0 -8.2344,3.9372 -8.2344,8.794 l 0,-14.4999 c 0,-4.7408 -3.8432,-8.5839 -8.584,-8.5839 z"
         clip-path="url(#1096970553793-clipPath1)"
         id="path64"
         inkscape:connector-curvature="0"
         style="stroke:none" />
    </g>
    <g
       font-size="38px"
       transform="translate(488.2966,177.7419)"
       id="g66"
       style="font-size:38px;font-family:sans-serif;fill:#333399;stroke:#333399;text-rendering:geometricPrecision">
      <text
         x="0"
         xml:space="preserve"
         y="37"
         clip-path="url(#1096970553326-clipPath1)"
         id="text68"
         style="stroke:none">NH</text>
    </g>
    <g
       font-size="30px"
       transform="translate(539.156,197.4517)"
       id="g70"
       style="font-size:30px;font-family:sans-serif;fill:#333399;stroke:#333399;text-rendering:geometricPrecision">
      <text
         x="0"
         xml:space="preserve"
         y="29"
         clip-path="url(#1096970553845-clipPath1)"
         id="text72"
         style="stroke:none">2</text>
    </g>
  </g>
</svg>
