<?xml version="1.0" encoding="UTF-8" standalone="no"?>
<svg
   xmlns:dc="http://purl.org/dc/elements/1.1/"
   xmlns:cc="http://creativecommons.org/ns#"
   xmlns:rdf="http://www.w3.org/1999/02/22-rdf-syntax-ns#"
   xmlns:svg="http://www.w3.org/2000/svg"
   xmlns="http://www.w3.org/2000/svg"
   xmlns:sodipodi="http://sodipodi.sourceforge.net/DTD/sodipodi-0.dtd"
   xmlns:inkscape="http://www.inkscape.org/namespaces/inkscape"
   width="542.60114"
   stroke-miterlimit="10"
   font-weight="normal"
   height="264.90543"
   font-style="normal"
   font-size="12px"
   id="svg2"
   version="1.1"
   inkscape:version="0.91 r13725"
   sodipodi:docname="DMT.svg"
   style="font-style:normal;font-weight:normal;font-size:12px;font-family:Dialog;color-interpolation:auto;fill:#000000;fill-opacity:1;stroke:#000000;stroke-width:1;stroke-linecap:square;stroke-linejoin:miter;stroke-miterlimit:10;stroke-dasharray:none;stroke-dashoffset:0;stroke-opacity:1;color-rendering:auto;image-rendering:auto;shape-rendering:auto;text-rendering:auto">
  <metadata
     id="metadata118">
    <rdf:RDF>
      <cc:Work
         rdf:about="">
        <dc:format>image/svg+xml</dc:format>
        <dc:type
           rdf:resource="http://purl.org/dc/dcmitype/StillImage" />
        <dc:title></dc:title>
      </cc:Work>
    </rdf:RDF>
  </metadata>
  <sodipodi:namedview
     pagecolor="#ffffff"
     bordercolor="#666666"
     borderopacity="1"
     objecttolerance="10"
     gridtolerance="10"
     guidetolerance="10"
     inkscape:pageopacity="0"
     inkscape:pageshadow="2"
     inkscape:window-width="1060"
     inkscape:window-height="480"
     id="namedview116"
     showgrid="false"
     fit-margin-top="10"
     fit-margin-left="10"
     fit-margin-right="10"
     fit-margin-bottom="10"
     inkscape:zoom="0.36375"
     inkscape:cx="271.31902"
     inkscape:cy="-14.9783"
     inkscape:window-x="0"
     inkscape:window-y="0"
     inkscape:window-maximized="0"
     inkscape:current-layer="svg2" />
  <!--Generated by Marvin with Batik SVG Generator-->
  <defs
     id="genericDefs" />
  <g
     id="g5"
     transform="translate(-128.68098,-20.116259)">
    <defs
       id="1082894669919-defs1">
      <clipPath
         clipPathUnits="userSpaceOnUse"
         id="1082894669235-clipPath1">
        <path
           d="M 0,0 800,0 800,600 0,600 0,0 Z"
           id="path9"
           inkscape:connector-curvature="0" />
      </clipPath>
      <clipPath
         clipPathUnits="userSpaceOnUse"
         id="1082894669934-clipPath1">
        <path
           d="m 522.0785,129.1685 c -17.9973,0 -32.587,14.5897 -32.587,32.587 0,17.9973 14.5897,32.587 32.587,32.587 17.9973,0 32.587,-14.5897 32.587,-32.587 0,-17.9973 -14.5897,-32.587 -32.587,-32.587 z"
           id="path12"
           inkscape:connector-curvature="0" />
      </clipPath>
      <clipPath
         clipPathUnits="userSpaceOnUse"
         id="1082894669611-clipPath1">
        <path
           d="m 247.2084,160.1265 c -16.3076,0 -29.5276,13.2199 -29.5276,29.5276 0,16.3076 13.22,29.5276 29.5276,29.5276 16.3077,0 29.5276,-13.22 29.5276,-29.5276 0,-16.3077 -13.2199,-29.5276 -29.5276,-29.5276 z"
           id="path15"
           inkscape:connector-curvature="0" />
      </clipPath>
      <clipPath
         clipPathUnits="userSpaceOnUse"
         id="1082894669324-clipPath1">
        <path
           d="m 309.8778,226.3398 c -16.9101,0 -30.6185,13.7083 -30.6185,30.6185 0,16.9101 13.7084,30.6185 30.6185,30.6185 16.9101,0 30.6185,-13.7084 30.6185,-30.6185 0,-16.9102 -13.7084,-30.6185 -30.6185,-30.6185 z"
           id="path18"
           inkscape:connector-curvature="0" />
      </clipPath>
      <clipPath
         clipPathUnits="userSpaceOnUse"
         id="1082894669106-clipPath1">
        <path
           d="m 609.2621,100.1712 c -16.0148,0 -28.9973,12.9826 -28.9973,28.9973 0,16.0148 12.9825,28.9973 28.9973,28.9973 16.0148,0 28.9973,-12.9825 28.9973,-28.9973 0,-16.0147 -12.9825,-28.9973 -28.9973,-28.9973 z"
           id="path21"
           inkscape:connector-curvature="0" />
      </clipPath>
      <clipPath
         clipPathUnits="userSpaceOnUse"
         id="1082894669242-clipPath1">
        <path
           d="m 593.8914,72.0557 c -15.1903,0 -27.5045,12.3142 -27.5045,27.5045 0,15.1904 12.3142,27.5046 27.5045,27.5046 15.1904,0 27.5045,-12.3142 27.5045,-27.5046 0,-15.1903 -12.3141,-27.5045 -27.5045,-27.5045 z"
           id="path24"
           inkscape:connector-curvature="0" />
      </clipPath>
      <clipPath
         clipPathUnits="userSpaceOnUse"
         id="1082894669611-clipPath2">
        <path
           d="m -583.6102,-102.7943 800,0 0,600 -800,0 0,-600 z"
           id="path27"
           inkscape:connector-curvature="0" />
      </clipPath>
      <clipPath
         clipPathUnits="userSpaceOnUse"
         id="1082894669803-clipPath1">
        <path
           d="m -262.4196,-243.967 800,0 0,600 -800,0 0,-600 z"
           id="path30"
           inkscape:connector-curvature="0" />
      </clipPath>
    </defs>
    <g
       id="g32"
       style="text-rendering:geometricPrecision">
      <path
         d="m 379.35,163.3099 71.813,-41.4612 c 0.8586,-0.4958 1.1527,-1.5932 0.6569,-2.4518 -0.4957,-0.8587 -1.5931,-1.1527 -2.4518,-0.657 l -71.8129,41.4612 c -0.8586,0.4958 -1.1527,1.5932 -0.6569,2.4518 0.4957,0.8587 1.5931,1.1527 2.4517,0.657 z"
         clip-path="url(#1082894669235-clipPath1)"
         id="path34"
         inkscape:connector-curvature="0"
         style="stroke:none" />
    </g>
    <g
       id="g36"
       style="text-rendering:geometricPrecision">
      <path
         d="m 449.3681,121.8487 71.813,41.4612 c 0.8586,0.4957 1.956,0.2017 2.4518,-0.657 0.4957,-0.8586 0.2016,-1.956 -0.657,-2.4518 L 451.163,118.7399 c -0.8586,-0.4957 -1.9561,-0.2017 -2.4518,0.657 -0.4957,0.8586 -0.2017,1.956 0.6569,2.4518 z"
         clip-path="url(#1082894669235-clipPath1)"
         id="path38"
         inkscape:connector-curvature="0"
         style="stroke:none" />
    </g>
    <g
       id="g40"
       style="fill:#333399;stroke:#333399;text-rendering:geometricPrecision">
      <path
         d="m 522.9759,163.3099 56.4423,-32.587 c 0.8587,-0.4957 1.1527,-1.5932 0.6569,-2.4518 -0.4957,-0.8586 -1.5931,-1.1527 -2.4517,-0.6569 l -56.4423,32.5869 c -0.8587,0.4958 -1.1527,1.5932 -0.657,2.4518 0.4957,0.8587 1.5932,1.1527 2.4518,0.657 z"
         clip-path="url(#1082894669235-clipPath1)"
         id="path42"
         inkscape:connector-curvature="0"
         style="stroke:none" />
      <path
         d="m 522.9759,163.3099 56.4423,-32.587 c 0.8587,-0.4957 1.1527,-1.5932 0.6569,-2.4518 -0.4957,-0.8586 -1.5931,-1.1527 -2.4517,-0.6569 l -56.4423,32.5869 c -0.8587,0.4958 -1.1527,1.5932 -0.657,2.4518 0.4957,0.8587 1.5932,1.1527 2.4518,0.657 z"
         clip-path="url(#1082894669934-clipPath1)"
         id="path44"
         inkscape:connector-curvature="0"
         style="fill:#000000;stroke:none" />
    </g>
    <g
       id="g46"
       style="text-rendering:geometricPrecision">
      <path
         d="m 304.0282,129.2362 c 0.6635,-0.7368 0.6041,-1.8714 -0.1327,-2.5348 -0.7368,-0.6634 -1.8714,-0.604 -2.5348,0.1328 l -55.4861,61.6188 c -0.6634,0.7368 -0.604,1.8714 0.1328,2.5349 0.7368,0.6634 1.8714,0.604 2.5348,-0.1328 z m -18.0943,-2.2579 c 0.6635,-0.7368 0.604,-1.8714 -0.1327,-2.5348 -0.7368,-0.6634 -1.8714,-0.604 -2.5348,0.1328 l -41.5269,46.1168 c -0.6634,0.7367 -0.604,1.8713 0.1328,2.5348 0.7367,0.6634 1.8713,0.604 2.5348,-0.1328 z"
         clip-path="url(#1082894669235-clipPath1)"
         id="path48"
         inkscape:connector-curvature="0"
         style="stroke:none" />
    </g>
    <g
       id="g50"
       style="text-rendering:geometricPrecision">
      <path
         d="m 379.1825,160.1158 -75.7582,-33.7204 c -0.9058,-0.4031 -1.9664,0.004 -2.3696,0.9099 -0.4032,0.9058 0.004,1.9665 0.9099,2.3696 l 75.7581,33.7203 c 0.9058,0.4032 1.9665,-0.004 2.3697,-0.9098 0.4031,-0.9058 -0.004,-1.9665 -0.9099,-2.3696 z"
         clip-path="url(#1082894669235-clipPath1)"
         id="path52"
         inkscape:connector-curvature="0"
         style="stroke:none" />
    </g>
    <g
       id="g54"
       style="text-rendering:geometricPrecision">
      <path
         d="m 380.2376,161.9433 c 0.1037,-0.986 -0.6112,-1.8691 -1.5972,-1.9728 -0.986,-0.1037 -1.869,0.6112 -1.9728,1.5972 l -8.6764,82.4687 c -0.1037,0.986 0.6112,1.869 1.5972,1.9728 0.986,0.1037 1.869,-0.6112 1.9728,-1.5972 z m -16.2001,11.0297 c 0.1037,-0.986 -0.6112,-1.869 -1.5972,-1.9728 -0.986,-0.1037 -1.869,0.6112 -1.9728,1.5972 l -6.0267,57.2832 c -0.1037,0.9861 0.6112,1.8691 1.5972,1.9728 0.986,0.1038 1.869,-0.6111 1.9728,-1.5972 z"
         clip-path="url(#1082894669235-clipPath1)"
         id="path56"
         inkscape:connector-curvature="0"
         style="stroke:none" />
    </g>
    <g
       id="g58"
       style="text-rendering:geometricPrecision">
      <path
         d="m 263.3857,63.3765 c 0.9698,0.2062 1.9227,-0.4124 2.1289,-1.3822 0.2063,-0.9698 -0.4124,-1.9227 -1.3821,-2.129 L 203.4342,46.9557 c -0.9698,-0.2062 -1.9227,0.4124 -2.1289,1.3822 -0.2063,0.9698 0.4124,1.9227 1.3822,2.129 z m 13.3132,-12.4602 c 0.9697,0.2063 1.9227,-0.4124 2.1289,-1.3822 0.2063,-0.9698 -0.4124,-1.9227 -1.3822,-2.1289 L 196.3434,30.1559 c -0.9698,-0.2062 -1.9227,0.4124 -2.129,1.3822 -0.2062,0.9698 0.4124,1.9227 1.3822,2.129 z"
         clip-path="url(#1082894669235-clipPath1)"
         id="path60"
         inkscape:connector-curvature="0"
         style="stroke:none" />
    </g>
    <g
       id="g62"
       style="text-rendering:geometricPrecision">
      <path
         d="m 194.6363,30.7104 -55.4936,61.6198 c -0.6635,0.7368 -0.6042,1.8714 0.1326,2.5349 0.7367,0.6634 1.8713,0.6041 2.5348,-0.1326 l 55.4936,-61.6199 c 0.6635,-0.7367 0.6042,-1.8713 -0.1326,-2.5348 -0.7367,-0.6635 -1.8713,-0.6041 -2.5348,0.1326 z"
         clip-path="url(#1082894669235-clipPath1)"
         id="path64"
         inkscape:connector-curvature="0"
         style="stroke:none" />
    </g>
    <g
       id="g66"
       style="text-rendering:geometricPrecision">
      <path
         d="m 159.6313,98.2762 c -0.3063,-0.9429 -1.3186,-1.4588 -2.2616,-1.1525 -0.9429,0.3063 -1.4588,1.3186 -1.1525,2.2615 l 19.1764,59.0352 c 0.3064,0.9429 1.3186,1.4588 2.2616,1.1525 0.9429,-0.3063 1.4588,-1.3186 1.1525,-2.2615 z m -17.4479,-5.2994 c -0.3063,-0.9429 -1.3186,-1.4588 -2.2615,-1.1525 -0.943,0.3063 -1.4589,1.3186 -1.1526,2.2615 l 25.6213,78.8756 c 0.3063,0.9429 1.3186,1.4588 2.2615,1.1525 0.943,-0.3063 1.4588,-1.3186 1.1525,-2.2615 z"
         clip-path="url(#1082894669235-clipPath1)"
         id="path68"
         inkscape:connector-curvature="0"
         style="stroke:none" />
    </g>
    <g
       id="g70"
       style="text-rendering:geometricPrecision">
      <path
         d="M 304.4015,127.4807 278.7793,48.6062 c -0.3064,-0.943 -1.3186,-1.4588 -2.2616,-1.1525 -0.943,0.3063 -1.4588,1.3186 -1.1525,2.2616 l 25.6222,78.8744 c 0.3063,0.943 1.3186,1.4588 2.2616,1.1525 0.9429,-0.3063 1.4588,-1.3186 1.1525,-2.2615 z"
         clip-path="url(#1082894669235-clipPath1)"
         id="path72"
         inkscape:connector-curvature="0"
         style="stroke:none" />
    </g>
    <g
       id="g74"
       style="text-rendering:geometricPrecision">
      <path
         d="m 165.7243,174.1625 81.1108,17.2472 c 0.9698,0.2062 1.9227,-0.4125 2.1289,-1.3823 0.2062,-0.9698 -0.4125,-1.9227 -1.3823,-2.1289 l -81.1108,-17.2472 c -0.9698,-0.2062 -1.9227,0.4125 -2.1289,1.3823 -0.2062,0.9698 0.4125,1.9227 1.3823,2.1289 z"
         clip-path="url(#1082894669235-clipPath1)"
         id="path76"
         inkscape:connector-curvature="0"
         style="stroke:none" />
    </g>
    <g
       id="g78"
       style="fill:#333399;stroke:#333399;text-rendering:geometricPrecision">
      <path
         d="m 245.6541,190.5515 29.5276,51.1433 c 0.4957,0.8587 1.5931,1.1527 2.4518,0.657 0.8586,-0.4958 1.1526,-1.5932 0.6569,-2.4518 l -29.5276,-51.1433 c -0.4957,-0.8587 -1.5932,-1.1527 -2.4518,-0.657 -0.8586,0.4957 -1.1527,1.5932 -0.6569,2.4518 z"
         clip-path="url(#1082894669235-clipPath1)"
         id="path80"
         inkscape:connector-curvature="0"
         style="stroke:none" />
      <path
         d="m 245.6541,190.5515 29.5276,51.1433 c 0.4957,0.8587 1.5931,1.1527 2.4518,0.657 0.8586,-0.4958 1.1526,-1.5932 0.6569,-2.4518 l -29.5276,-51.1433 c -0.4957,-0.8587 -1.5932,-1.1527 -2.4518,-0.657 -0.8586,0.4957 -1.1527,1.5932 -0.6569,2.4518 z"
         clip-path="url(#1082894669611-clipPath1)"
         id="path82"
         inkscape:connector-curvature="0"
         style="fill:#000000;stroke:none" />
    </g>
    <g
       id="g84"
       style="text-rendering:geometricPrecision">
      <path
         d="m 310.251,258.7139 59.8984,-12.7341 c 0.9698,-0.2062 1.5886,-1.1591 1.3824,-2.1289 -0.2062,-0.9698 -1.1591,-1.5885 -2.1288,-1.3823 l -59.8984,12.7341 c -0.9698,0.2061 -1.5886,1.159 -1.3824,2.1288 0.2062,0.9698 1.159,1.5885 2.1288,1.3824 z"
         clip-path="url(#1082894669235-clipPath1)"
         id="path86"
         inkscape:connector-curvature="0"
         style="stroke:none" />
      <path
         d="m 310.251,258.7139 59.8984,-12.7341 c 0.9698,-0.2062 1.5886,-1.1591 1.3824,-2.1289 -0.2062,-0.9698 -1.1591,-1.5885 -2.1288,-1.3823 l -59.8984,12.7341 c -0.9698,0.2061 -1.5886,1.159 -1.3824,2.1288 0.2062,0.9698 1.159,1.5885 2.1288,1.3824 z"
         clip-path="url(#1082894669324-clipPath1)"
         id="path88"
         inkscape:connector-curvature="0"
         style="fill:#333399;stroke:none" />
    </g>
    <g
       id="g90"
       style="text-rendering:geometricPrecision">
      <path
         d="m 608.3647,130.7229 50.2248,28.9973 c 0.8586,0.4957 1.956,0.2017 2.4518,-0.657 0.4957,-0.8586 0.2016,-1.956 -0.657,-2.4517 l -50.2248,-28.9973 c -0.8586,-0.4958 -1.9561,-0.2017 -2.4518,0.6569 -0.4957,0.8586 -0.2017,1.9561 0.657,2.4518 z"
         clip-path="url(#1082894669235-clipPath1)"
         id="path92"
         inkscape:connector-curvature="0"
         style="stroke:none" />
      <path
         d="m 608.3647,130.7229 50.2248,28.9973 c 0.8586,0.4957 1.956,0.2017 2.4518,-0.657 0.4957,-0.8586 0.2016,-1.956 -0.657,-2.4517 l -50.2248,-28.9973 c -0.8586,-0.4958 -1.9561,-0.2017 -2.4518,0.6569 -0.4957,0.8586 -0.2017,1.9561 0.657,2.4518 z"
         clip-path="url(#1082894669106-clipPath1)"
         id="path94"
         inkscape:connector-curvature="0"
         style="fill:#333399;stroke:none" />
    </g>
    <g
       id="g96"
       style="text-rendering:geometricPrecision">
      <path
         d="m 595.6863,99.5602 0,-55.009 c 0,-0.9915 -0.8034,-1.7948 -1.7949,-1.7948 -0.9914,0 -1.7948,0.8033 -1.7948,1.7948 l 0,55.009 c 0,0.9915 0.8034,1.7949 1.7948,1.7949 0.9915,0 1.7949,-0.8034 1.7949,-1.7949 z"
         clip-path="url(#1082894669235-clipPath1)"
         id="path98"
         inkscape:connector-curvature="0"
         style="stroke:none" />
      <path
         d="m 595.6863,99.5602 0,-55.009 c 0,-0.9915 -0.8034,-1.7948 -1.7949,-1.7948 -0.9914,0 -1.7948,0.8033 -1.7948,1.7948 l 0,55.009 c 0,0.9915 0.8034,1.7949 1.7948,1.7949 0.9915,0 1.7949,-0.8034 1.7949,-1.7949 z"
         clip-path="url(#1082894669242-clipPath1)"
         id="path100"
         inkscape:connector-curvature="0"
         style="fill:#333399;stroke:none" />
    </g>
    <g
       id="g102"
       style="fill:#ffffff;stroke:#ffffff;text-rendering:geometricPrecision">
      <path
         d="m 592.3875,106.7396 c -3.743,0 -6.7773,3.0343 -6.7773,6.7773 l 0,13.5547 c 0,3.7431 3.0343,6.7774 6.7773,6.7774 l 3.0078,0 c 3.7431,0 6.7774,-3.0343 6.7774,-6.7774 l 0,-13.5547 c 0,-3.743 -3.0343,-6.7773 -6.7774,-6.7773 z"
         clip-path="url(#1082894669235-clipPath1)"
         id="path104"
         inkscape:connector-curvature="0"
         style="stroke:none" />
    </g>
    <g
       font-size="29px"
       transform="translate(583.6102,102.7943)"
       id="g106"
       style="font-size:29px;font-family:sans-serif;fill:#333399;stroke:#333399;text-rendering:geometricPrecision">
      <text
         x="0"
         xml:space="preserve"
         y="28"
         clip-path="url(#1082894669611-clipPath2)"
         id="text108"
         style="stroke:none">N</text>
    </g>
    <g
       font-size="29px"
       id="g110"
       style="font-size:29px;font-family:sans-serif;fill:#ffffff;stroke:#ffffff;text-rendering:geometricPrecision">
      <path
         d="m 270.697,247.9123 c -3.743,0 -6.7774,3.0344 -6.7774,6.7774 l 0,13.5547 c 0,3.743 3.0344,6.7773 6.7774,6.7773 l 25.0078,0 c 3.743,0 6.7773,-3.0343 6.7773,-6.7773 l 0,-13.5547 c 0,-3.743 -3.0343,-6.7774 -6.7773,-6.7774 z"
         clip-path="url(#1082894669235-clipPath1)"
         id="path112"
         inkscape:connector-curvature="0"
         style="stroke:none" />
      <text
         x="0"
         y="28"
         transform="translate(262.4196,243.967)"
         clip-path="url(#1082894669803-clipPath1)"
         xml:space="preserve"
         id="text114"
         style="fill:#333399;stroke:none">HN</text>
    </g>
  </g>
</svg>
