<?xml version="1.0" encoding="UTF-8" standalone="no"?>
<svg
   xmlns:dc="http://purl.org/dc/elements/1.1/"
   xmlns:cc="http://creativecommons.org/ns#"
   xmlns:rdf="http://www.w3.org/1999/02/22-rdf-syntax-ns#"
   xmlns:svg="http://www.w3.org/2000/svg"
   xmlns="http://www.w3.org/2000/svg"
   xmlns:sodipodi="http://sodipodi.sourceforge.net/DTD/sodipodi-0.dtd"
   xmlns:inkscape="http://www.inkscape.org/namespaces/inkscape"
   width="392.59988"
   stroke-miterlimit="10"
   font-weight="normal"
   height="567.72748"
   font-style="normal"
   font-size="12px"
   id="svg2"
   version="1.1"
   inkscape:version="0.91 r13725"
   sodipodi:docname="LSD.svg"
   style="font-style:normal;font-weight:normal;font-size:12px;font-family:Dialog;color-interpolation:auto;fill:#000000;fill-opacity:1;stroke:#000000;stroke-width:1;stroke-linecap:square;stroke-linejoin:miter;stroke-miterlimit:10;stroke-dasharray:none;stroke-dashoffset:0;stroke-opacity:1;color-rendering:auto;image-rendering:auto;shape-rendering:auto;text-rendering:auto">
  <metadata
     id="metadata240">
    <rdf:RDF>
      <cc:Work
         rdf:about="">
        <dc:format>image/svg+xml</dc:format>
        <dc:type
           rdf:resource="http://purl.org/dc/dcmitype/StillImage" />
        <dc:title></dc:title>
      </cc:Work>
    </rdf:RDF>
  </metadata>
  <sodipodi:namedview
     pagecolor="#ffffff"
     bordercolor="#666666"
     borderopacity="1"
     objecttolerance="10"
     gridtolerance="10"
     guidetolerance="10"
     inkscape:pageopacity="0"
     inkscape:pageshadow="2"
     inkscape:window-width="1060"
     inkscape:window-height="480"
     id="namedview238"
     showgrid="false"
     fit-margin-top="10"
     fit-margin-left="10"
     fit-margin-right="10"
     fit-margin-bottom="10"
     inkscape:zoom="0.36375"
     inkscape:cx="196.29993"
     inkscape:cy="283.9746"
     inkscape:window-x="0"
     inkscape:window-y="0"
     inkscape:window-maximized="0"
     inkscape:current-layer="svg2" />
  <!--Generated by Marvin with Batik SVG Generator-->
  <defs
     id="genericDefs" />
  <g
     id="g5"
     transform="translate(-203.70007,-16.247122)">
    <defs
       id="1173621464653-defs1">
      <clipPath
         clipPathUnits="userSpaceOnUse"
         id="1173621464261-clipPath1">
        <path
           d="M 0,0 800,0 800,600 0,600 0,0 Z"
           id="path9"
           inkscape:connector-curvature="0" />
      </clipPath>
      <clipPath
         clipPathUnits="userSpaceOnUse"
         id="1173621464974-clipPath1">
        <path
           d="m 277.7446,467.0976 c -14.6454,0 -26.5179,11.8725 -26.5179,26.5179 0,14.6455 11.8725,26.518 26.5179,26.518 14.6455,0 26.518,-11.8725 26.518,-26.518 0,-14.6454 -11.8725,-26.5179 -26.518,-26.5179 z"
           id="path12"
           inkscape:connector-curvature="0" />
      </clipPath>
      <clipPath
         clipPathUnits="userSpaceOnUse"
         id="117362146465-clipPath1">
        <path
           d="m 318.198,531.1243 c -17.1792,0 -31.1057,13.9265 -31.1057,31.1057 0,17.1792 13.9265,31.1057 31.1057,31.1057 17.1793,0 31.1057,-13.9265 31.1057,-31.1057 0,-17.1792 -13.9264,-31.1057 -31.1057,-31.1057 z"
           id="path15"
           inkscape:connector-curvature="0" />
      </clipPath>
      <clipPath
         clipPathUnits="userSpaceOnUse"
         id="1173621464117-clipPath1">
        <path
           d="m 465.1923,212.9523 c -15.5577,0 -28.1698,12.612 -28.1698,28.1697 0,15.5577 12.6121,28.1697 28.1698,28.1697 15.5577,0 28.1697,-12.612 28.1697,-28.1697 0,-15.5577 -12.612,-28.1697 -28.1697,-28.1697 z"
           id="path18"
           inkscape:connector-curvature="0" />
      </clipPath>
      <clipPath
         clipPathUnits="userSpaceOnUse"
         id="1173621464819-clipPath1">
        <path
           d="m 465.1985,140.6139 c -15.6662,0 -28.3662,12.7 -28.3662,28.3662 0,15.6662 12.7,28.3662 28.3662,28.3662 15.6662,0 28.3662,-12.7 28.3662,-28.3662 0,-15.6662 -12.7,-28.3662 -28.3662,-28.3662 z"
           id="path21"
           inkscape:connector-curvature="0" />
      </clipPath>
      <clipPath
         clipPathUnits="userSpaceOnUse"
         id="1173621464548-clipPath1">
        <path
           d="m 389.3797,112.2407 c -15.6664,0 -28.3665,12.7 -28.3665,28.3664 0,15.6663 12.7001,28.3664 28.3665,28.3664 15.6663,0 28.3664,-12.7001 28.3664,-28.3664 0,-15.6664 -12.7001,-28.3664 -28.3664,-28.3664 z"
           id="path24"
           inkscape:connector-curvature="0" />
      </clipPath>
      <clipPath
         clipPathUnits="userSpaceOnUse"
         id="1173621464530-clipPath1">
        <path
           d="m 402.7265,87.8358 c -14.9525,0 -27.0739,12.1214 -27.0739,27.0739 0,14.9525 12.1214,27.0739 27.0739,27.0739 14.9525,0 27.0739,-12.1214 27.0739,-27.0739 0,-14.9525 -12.1214,-27.0739 -27.0739,-27.0739 z"
           id="path27"
           inkscape:connector-curvature="0" />
      </clipPath>
      <clipPath
         clipPathUnits="userSpaceOnUse"
         id="1173621464352-clipPath1">
        <path
           d="m 527.667,304.2739 c -14.9519,0 -27.0728,12.1209 -27.0728,27.0728 0,14.952 12.1209,27.0729 27.0728,27.0729 14.9519,0 27.0729,-12.1209 27.0729,-27.0729 0,-14.9519 -12.121,-27.0728 -27.0729,-27.0728 z"
           id="path30"
           inkscape:connector-curvature="0" />
      </clipPath>
      <clipPath
         clipPathUnits="userSpaceOnUse"
         id="1173621464839-clipPath1">
        <path
           d="m 465.1864,357.0463 c -15.6682,0 -28.3698,12.7016 -28.3698,28.3698 0,15.6683 12.7016,28.3699 28.3698,28.3699 15.6682,0 28.3698,-12.7016 28.3698,-28.3699 0,-15.6682 -12.7016,-28.3698 -28.3698,-28.3698 z"
           id="path33"
           inkscape:connector-curvature="0" />
      </clipPath>
      <clipPath
         clipPathUnits="userSpaceOnUse"
         id="1173621464417-clipPath1">
        <path
           d="m 465.1864,358.3422 c -14.9525,0 -27.0739,12.1214 -27.0739,27.0739 0,14.9526 12.1214,27.074 27.0739,27.074 14.9525,0 27.0739,-12.1214 27.0739,-27.074 0,-14.9525 -12.1214,-27.0739 -27.0739,-27.0739 z"
           id="path36"
           inkscape:connector-curvature="0" />
      </clipPath>
      <clipPath
         clipPathUnits="userSpaceOnUse"
         id="1173621464321-clipPath1">
        <path
           d="m 465.1985,141.6842 c -15.0751,0 -27.2959,12.2208 -27.2959,27.2959 0,15.0751 12.2208,27.2959 27.2959,27.2959 15.0751,0 27.2959,-12.2208 27.2959,-27.2959 0,-15.0751 -12.2208,-27.2959 -27.2959,-27.2959 z"
           id="path39"
           inkscape:connector-curvature="0" />
      </clipPath>
      <clipPath
         clipPathUnits="userSpaceOnUse"
         id="1173621464880-clipPath1">
        <path
           d="m 541.0139,331.8012 c -13.9416,0 -25.2435,11.3019 -25.2435,25.2434 0,13.9415 11.3019,25.2434 25.2435,25.2434 13.9415,0 25.2434,-11.3019 25.2434,-25.2434 0,-13.9415 -11.3019,-25.2434 -25.2434,-25.2434 z"
           id="path42"
           inkscape:connector-curvature="0" />
      </clipPath>
      <clipPath
         clipPathUnits="userSpaceOnUse"
         id="1173621464101-clipPath1">
        <path
           d="m -518.4891,-334.3408 800,0 0,600 -800,0 0,-600 z"
           id="path45"
           inkscape:connector-curvature="0" />
      </clipPath>
      <clipPath
         clipPathUnits="userSpaceOnUse"
         id="1173621464205-clipPath1">
        <path
           d="m -277.0924,-547.2266 800,0 0,600 -800,0 0,-600 z"
           id="path48"
           inkscape:connector-curvature="0" />
      </clipPath>
      <clipPath
         clipPathUnits="userSpaceOnUse"
         id="1173621464746-clipPath1">
        <path
           d="m -456.0536,-298.2743 800,0 0,600 -800,0 0,-600 z"
           id="path51"
           inkscape:connector-curvature="0" />
      </clipPath>
      <clipPath
         clipPathUnits="userSpaceOnUse"
         id="1173621464591-clipPath1">
        <path
           d="m -393.5827,-190.051 800,0 0,600 -800,0 0,-600 z"
           id="path54"
           inkscape:connector-curvature="0" />
      </clipPath>
      <clipPath
         clipPathUnits="userSpaceOnUse"
         id="1173621464765-clipPath1">
        <path
           d="m -393.5453,-117.9037 800,0 0,600 -800,0 0,-600 z"
           id="path57"
           inkscape:connector-curvature="0" />
      </clipPath>
      <clipPath
         clipPathUnits="userSpaceOnUse"
         id="1173621464912-clipPath1">
        <path
           d="m -518.3971,-117.9146 800,0 0,600 -800,0 0,-600 z"
           id="path60"
           inkscape:connector-curvature="0" />
      </clipPath>
    </defs>
    <g
       id="g62"
       style="text-rendering:geometricPrecision">
      <path
         d="m 213.7004,457.5446 c 0,0.8626 0.699,1.5615 1.5615,1.5615 0.8626,0 1.5615,-0.6989 1.5615,-1.5615 l 0,-72.1506 c 0,-0.8626 -0.6989,-1.5615 -1.5615,-1.5615 -0.8625,0 -1.5615,0.6989 -1.5615,1.5615 z m 13.0126,-9.0747 c 0,0.8626 0.6989,1.5615 1.5615,1.5615 0.8626,0 1.5615,-0.6989 1.5615,-1.5615 l 0,-54.0006 c 0,-0.8626 -0.6989,-1.5615 -1.5615,-1.5615 -0.8626,0 -1.5615,0.6989 -1.5615,1.5615 z"
         clip-path="url(#1173621464261-clipPath1)"
         id="path64"
         inkscape:connector-curvature="0"
         style="stroke:none" />
    </g>
    <g
       id="g66"
       style="text-rendering:geometricPrecision">
      <path
         d="m 278.3167,476.4575 c -0.747,0.4312 -1.0029,1.3859 -0.5717,2.133 0.4312,0.747 1.3859,1.0029 2.133,0.5717 l 46.7579,-26.9904 c 0.7471,-0.4312 1.003,-1.3859 0.5717,-2.133 -0.4312,-0.747 -1.3859,-1.0029 -2.133,-0.5717 z m -1.3527,15.8057 c -0.7471,0.4312 -1.0029,1.3859 -0.5717,2.133 0.4312,0.747 1.3859,1.0029 2.133,0.5717 l 62.4751,-36.0629 c 0.747,-0.4312 1.003,-1.3859 0.5717,-2.133 -0.4312,-0.747 -1.3859,-1.0029 -2.133,-0.5717 z"
         clip-path="url(#1173621464261-clipPath1)"
         id="path68"
         inkscape:connector-curvature="0"
         style="stroke:none" />
    </g>
    <g
       id="g70"
       style="text-rendering:geometricPrecision">
      <path
         d="m 325.078,393.4922 c 0.747,0.4314 1.7018,0.1756 2.1331,-0.5714 0.4313,-0.747 0.1755,-1.7018 -0.5715,-2.1331 l -46.7662,-27.0032 c -0.747,-0.4313 -1.7018,-0.1755 -2.1331,0.5715 -0.4313,0.7469 -0.1755,1.7017 0.5714,2.133 z m 14.3654,-6.7313 c 0.7469,0.4313 1.7017,0.1755 2.133,-0.5715 0.4313,-0.747 0.1756,-1.7018 -0.5715,-2.1331 l -62.4827,-36.078 c -0.747,-0.4313 -1.7017,-0.1755 -2.133,0.5715 -0.4313,0.747 -0.1756,1.7018 0.5714,2.1331 z"
         clip-path="url(#1173621464261-clipPath1)"
         id="path72"
         inkscape:connector-curvature="0"
         style="stroke:none" />
    </g>
    <g
       id="g74"
       style="text-rendering:geometricPrecision">
      <path
         d="m 214.4812,458.8969 62.4827,36.071 c 0.7471,0.4312 1.7018,0.1754 2.1331,-0.5717 0.4312,-0.747 0.1753,-1.7017 -0.5717,-2.133 l -62.4827,-36.0709 c -0.747,-0.4313 -1.7018,-0.1754 -2.133,0.5716 -0.4313,0.7471 -0.1754,1.7018 0.5716,2.133 z"
         clip-path="url(#1173621464261-clipPath1)"
         id="path76"
         inkscape:connector-curvature="0"
         style="stroke:none" />
    </g>
    <g
       id="g78"
       style="text-rendering:geometricPrecision">
      <path
         d="m 276.9608,347.9782 -62.4795,36.0634 c -0.747,0.4312 -1.003,1.386 -0.5718,2.133 0.4312,0.747 1.386,1.003 2.133,0.5718 L 278.522,350.683 c 0.7471,-0.4312 1.003,-1.3859 0.5718,-2.133 -0.4312,-0.7471 -1.3859,-1.003 -2.133,-0.5718 z"
         clip-path="url(#1173621464261-clipPath1)"
         id="path80"
         inkscape:connector-curvature="0"
         style="stroke:none" />
    </g>
    <g
       id="g82"
       style="text-rendering:geometricPrecision">
      <path
         d="m 341.7813,457.5528 0.004,-72.1441 c 10e-5,-0.8626 -0.6988,-1.5616 -1.5614,-1.5616 -0.8625,-1e-4 -1.5615,0.6988 -1.5615,1.5614 l -0.004,72.1441 c -10e-5,0.8625 0.6988,1.5615 1.5614,1.5616 0.8625,0 1.5615,-0.6989 1.5616,-1.5614 z"
         clip-path="url(#1173621464261-clipPath1)"
         id="path84"
         inkscape:connector-curvature="0"
         style="stroke:none" />
    </g>
    <g
       id="g86"
       style="text-rendering:geometricPrecision">
      <path
         d="m 403.4834,494.9829 62.4719,-36.0748 c 0.747,-0.4314 1.0027,-1.3862 0.5714,-2.1331 -0.4314,-0.747 -1.3861,-1.0027 -2.1331,-0.5714 l -62.472,36.0748 c -0.7469,0.4314 -1.0027,1.3862 -0.5713,2.1331 0.4313,0.747 1.3861,1.0027 2.1331,0.5714 z"
         clip-path="url(#1173621464261-clipPath1)"
         id="path88"
         inkscape:connector-curvature="0"
         style="stroke:none" />
    </g>
    <g
       id="g90"
       style="text-rendering:geometricPrecision">
      <path
         d="m 466.736,457.5561 0.0119,-72.1397 c 10e-5,-0.8626 -0.6987,-1.5616 -1.5613,-1.5618 -0.8625,-1e-4 -1.5616,0.6987 -1.5617,1.5613 l -0.012,72.1397 c -1e-4,0.8626 0.6987,1.5616 1.5613,1.5617 0.8625,2e-4 1.5616,-0.6986 1.5618,-1.5612 z"
         clip-path="url(#1173621464261-clipPath1)"
         id="path92"
         inkscape:connector-curvature="0"
         style="stroke:none" />
    </g>
    <g
       id="g94"
       style="text-rendering:geometricPrecision">
      <path
         d="m 465.9672,384.0639 -62.4827,-36.078 c -0.747,-0.4313 -1.7018,-0.1755 -2.1331,0.5714 -0.4313,0.747 -0.1755,1.7018 0.5715,2.1331 l 62.4827,36.078 c 0.747,0.4313 1.7017,0.1755 2.1331,-0.5714 0.4313,-0.747 0.1755,-1.7018 -0.5715,-2.1331 z"
         clip-path="url(#1173621464261-clipPath1)"
         id="path96"
         inkscape:connector-curvature="0"
         style="stroke:none" />
    </g>
    <g
       id="g98"
       style="text-rendering:geometricPrecision">
      <path
         d="m 339.439,458.9049 62.4827,36.078 c 0.747,0.4313 1.7017,0.1756 2.1331,-0.5714 0.4313,-0.747 0.1755,-1.7018 -0.5715,-2.1331 l -62.4827,-36.078 c -0.747,-0.4313 -1.7018,-0.1755 -2.1331,0.5715 -0.4313,0.747 -0.1755,1.7017 0.5715,2.133 z"
         clip-path="url(#1173621464261-clipPath1)"
         id="path100"
         inkscape:connector-curvature="0"
         style="stroke:none" />
    </g>
    <g
       id="g102"
       style="text-rendering:geometricPrecision">
      <path
         d="m 341.0049,386.7609 62.4795,-36.0704 c 0.747,-0.4313 1.0028,-1.3861 0.5716,-2.1331 -0.4313,-0.747 -1.386,-1.0028 -2.133,-0.5716 l -62.4795,36.0705 c -0.7471,0.4312 -1.0029,1.386 -0.5717,2.133 0.4313,0.747 1.386,1.0029 2.1331,0.5716 z"
         clip-path="url(#1173621464261-clipPath1)"
         id="path104"
         inkscape:connector-curvature="0"
         style="stroke:none" />
    </g>
    <g
       id="g106"
       style="text-rendering:geometricPrecision">
      <path
         d="m 528.4427,275.8489 -62.4695,-36.0791 c -0.7469,-0.4314 -1.7017,-0.1757 -2.1331,0.5712 -0.4314,0.747 -0.1757,1.7018 0.5712,2.1332 l 62.4695,36.0791 c 0.7469,0.4313 1.7017,0.1757 2.1331,-0.5713 0.4314,-0.7469 0.1757,-1.7017 -0.5712,-2.1331 z"
         clip-path="url(#1173621464261-clipPath1)"
         id="path108"
         inkscape:connector-curvature="0"
         style="stroke:none" />
    </g>
    <g
       id="g110"
       style="text-rendering:geometricPrecision">
      <path
         d="m 464.4116,239.7697 -62.4852,36.0737 c -0.747,0.4313 -1.0029,1.386 -0.5717,2.133 0.4313,0.747 1.3861,1.0029 2.1331,0.5716 l 62.4852,-36.0737 c 0.747,-0.4313 1.0028,-1.386 0.5716,-2.133 -0.4313,-0.747 -1.386,-1.0029 -2.133,-0.5716 z"
         clip-path="url(#1173621464261-clipPath1)"
         id="path112"
         inkscape:connector-curvature="0"
         style="stroke:none" />
    </g>
    <g
       id="g114"
       style="text-rendering:geometricPrecision">
      <path
         d="m 401.1422,349.3381 c 0,0.8625 0.6988,1.5615 1.5614,1.5615 0.8626,10e-5 1.5615,-0.6988 1.5616,-1.5614 l 0.003,-72.1424 c 0,-0.8626 -0.6989,-1.5616 -1.5614,-1.5616 -0.8626,0 -1.5616,0.6989 -1.5616,1.5614 z m 13.013,-9.0738 c 0,0.8626 0.6989,1.5616 1.5614,1.5616 0.8626,0 1.5615,-0.6989 1.5616,-1.5614 l 0.002,-53.994 c 1e-4,-0.8625 -0.6988,-1.5615 -1.5614,-1.5615 -0.8625,-10e-5 -1.5615,0.6988 -1.5616,1.5614 z"
         clip-path="url(#1173621464261-clipPath1)"
         id="path116"
         inkscape:connector-curvature="0"
         style="stroke:none" />
    </g>
    <g
       id="g118"
       style="text-rendering:geometricPrecision">
      <path
         d="m 404.1876,494.1132 c 0.2665,-0.8204 -0.1822,-1.7011 -1.0026,-1.9676 -0.8203,-0.2665 -1.701,0.1822 -1.9676,1.0025 l -22.2931,68.6111 c -0.2665,0.8203 0.1823,1.701 1.0026,1.9675 0.8204,0.2666 1.7011,-0.1821 1.9676,-1.0025 z m -16.1144,7.4852 c 0.2666,-0.8204 -0.1821,-1.7011 -1.0025,-1.9676 -0.8203,-0.2666 -1.701,0.1822 -1.9676,1.0025 l -15.1498,46.6264 c -0.2666,0.8204 0.1822,1.7011 1.0025,1.9676 0.8204,0.2665 1.7011,-0.1822 1.9676,-1.0025 z"
         clip-path="url(#1173621464261-clipPath1)"
         id="path120"
         inkscape:connector-curvature="0"
         style="stroke:none" />
    </g>
    <g
       id="g122"
       style="fill:#333399;stroke:#333399;text-rendering:geometricPrecision">
      <path
         d="m 276.2596,494.0981 16.389,50.4401 c 0.2665,0.8204 1.1472,1.2691 1.9675,1.0026 0.8204,-0.2666 1.2692,-1.1473 1.0026,-1.9676 l -16.389,-50.4402 c -0.2665,-0.8203 -1.1472,-1.2691 -1.9676,-1.0025 -0.8204,0.2665 -1.2691,1.1472 -1.0025,1.9676 z"
         clip-path="url(#1173621464261-clipPath1)"
         id="path124"
         inkscape:connector-curvature="0"
         style="stroke:none" />
      <path
         d="m 276.2596,494.0981 16.389,50.4401 c 0.2665,0.8204 1.1472,1.2691 1.9675,1.0026 0.8204,-0.2666 1.2692,-1.1473 1.0026,-1.9676 l -16.389,-50.4402 c -0.2665,-0.8203 -1.1472,-1.2691 -1.9676,-1.0025 -0.8204,0.2665 -1.2691,1.1472 -1.0025,1.9676 z"
         clip-path="url(#1173621464974-clipPath1)"
         id="path126"
         inkscape:connector-curvature="0"
         style="fill:#000000;stroke:none" />
    </g>
    <g
       id="g128"
       style="text-rendering:geometricPrecision">
      <path
         d="m 318.1978,563.7914 62.2113,0.0118 c 0.8626,1e-4 1.5617,-0.6986 1.5618,-1.5613 2e-4,-0.8625 -0.6986,-1.5615 -1.5612,-1.5617 l -62.2114,-0.0117 c -0.8625,-2e-4 -1.5616,0.6986 -1.5618,1.5612 -1e-4,0.8625 0.6987,1.5616 1.5613,1.5617 z"
         clip-path="url(#1173621464261-clipPath1)"
         id="path130"
         inkscape:connector-curvature="0"
         style="stroke:none" />
      <path
         d="m 318.1978,563.7914 62.2113,0.0118 c 0.8626,1e-4 1.5617,-0.6986 1.5618,-1.5613 2e-4,-0.8625 -0.6986,-1.5615 -1.5612,-1.5617 l -62.2114,-0.0117 c -0.8625,-2e-4 -1.5616,0.6986 -1.5618,1.5612 -1e-4,0.8625 0.6987,1.5616 1.5613,1.5617 z"
         clip-path="url(#117362146465-clipPath1)"
         id="path132"
         inkscape:connector-curvature="0"
         style="fill:#333399;stroke:none" />
    </g>
    <g
       id="g134"
       style="text-rendering:geometricPrecision">
      <path
         d="m 465.1923,241.122 1.5615,10e-5 8.2038,-68.3096 -9.7589,-5.6355 -9.759,-5.6354 8.1911,79.5802 z"
         clip-path="url(#1173621464261-clipPath1)"
         id="path136"
         inkscape:connector-curvature="0"
         style="stroke:none" />
    </g>
    <g
       id="g138"
       style="fill:#333333;stroke:#333333;text-rendering:geometricPrecision">
      <path
         d="m 459.1633,240.3835 2.9318,1.168 1.9206,-3.3265 0,0 -2.4774,-1.955 0,0 -2.375,4.1135 z m -9.5284,-3.7958 2.9318,1.1679 3.3974,-5.8845 -2.4774,-1.9551 -3.8518,6.6717 z m -9.5285,-3.7959 2.9318,1.1679 4.8744,-8.4425 -2.4774,-1.9551 0,0 -5.3288,9.2297 z m -9.5284,-3.7959 2.9318,1.168 6.3513,-11.0007 -2.4774,-1.955 -6.8057,11.7877 z m -9.5284,-3.7958 2.9318,1.1679 0,0 7.8281,-13.5587 -2.4774,-1.9551 0,0 -8.2825,14.3459 z m -9.5285,-3.7959 2.9318,1.1679 9.3051,-16.1167 -2.4774,-1.9551 -4.8798,8.452 -4.8797,8.4519 z"
         clip-path="url(#1173621464261-clipPath1)"
         id="path140"
         inkscape:connector-curvature="0"
         style="stroke:none" />
      <path
         d="m 459.1633,240.3835 2.9318,1.168 1.9206,-3.3265 0,0 -2.4774,-1.955 0,0 -2.375,4.1135 z m -9.5284,-3.7958 2.9318,1.1679 3.3974,-5.8845 -2.4774,-1.9551 -3.8518,6.6717 z m -9.5285,-3.7959 2.9318,1.1679 4.8744,-8.4425 -2.4774,-1.9551 0,0 -5.3288,9.2297 z m -9.5284,-3.7959 2.9318,1.168 6.3513,-11.0007 -2.4774,-1.955 -6.8057,11.7877 z m -9.5284,-3.7958 2.9318,1.1679 0,0 7.8281,-13.5587 -2.4774,-1.9551 0,0 -8.2825,14.3459 z m -9.5285,-3.7959 2.9318,1.1679 9.3051,-16.1167 -2.4774,-1.9551 -4.8798,8.452 -4.8797,8.4519 z"
         clip-path="url(#1173621464117-clipPath1)"
         id="path142"
         inkscape:connector-curvature="0"
         style="fill:#000000;stroke:none" />
    </g>
    <g
       id="g144"
       style="fill:#333399;stroke:#333399;text-rendering:geometricPrecision">
      <path
         d="m 465.9794,167.6279 -49.1292,-28.3705 c -0.747,-0.4313 -1.7018,-0.1756 -2.1331,0.5714 -0.4314,0.7469 -0.1756,1.7017 0.5713,2.1331 l 49.1293,28.3704 c 0.7469,0.4314 1.7017,0.1756 2.1331,-0.5713 0.4313,-0.747 0.1755,-1.7018 -0.5714,-2.1331 z"
         clip-path="url(#1173621464261-clipPath1)"
         id="path146"
         inkscape:connector-curvature="0"
         style="stroke:none" />
      <path
         d="m 465.9794,167.6279 -49.1292,-28.3705 c -0.747,-0.4313 -1.7018,-0.1756 -2.1331,0.5714 -0.4314,0.7469 -0.1756,1.7017 0.5713,2.1331 l 49.1293,28.3704 c 0.7469,0.4314 1.7017,0.1756 2.1331,-0.5713 0.4313,-0.747 0.1755,-1.7018 -0.5714,-2.1331 z"
         clip-path="url(#1173621464819-clipPath1)"
         id="path148"
         inkscape:connector-curvature="0"
         style="fill:#000000;stroke:none" />
    </g>
    <g
       id="g150"
       style="text-rendering:geometricPrecision">
      <path
         d="m 388.599,139.2547 -49.1345,28.3622 c -0.7471,0.4312 -1.003,1.386 -0.5717,2.133 0.4312,0.747 1.3859,1.0029 2.133,0.5717 l 49.1345,-28.3621 c 0.747,-0.4313 1.003,-1.386 0.5717,-2.133 -0.4312,-0.7471 -1.3859,-1.003 -2.133,-0.5718 z"
         clip-path="url(#1173621464261-clipPath1)"
         id="path152"
         inkscape:connector-curvature="0"
         style="stroke:none" />
      <path
         d="m 388.599,139.2547 -49.1345,28.3622 c -0.7471,0.4312 -1.003,1.386 -0.5717,2.133 0.4312,0.747 1.3859,1.0029 2.133,0.5717 l 49.1345,-28.3621 c 0.747,-0.4313 1.003,-1.386 0.5717,-2.133 -0.4312,-0.7471 -1.3859,-1.003 -2.133,-0.5718 z"
         clip-path="url(#1173621464548-clipPath1)"
         id="path154"
         inkscape:connector-curvature="0"
         style="fill:#333399;stroke:none" />
    </g>
    <g
       id="g156"
       style="text-rendering:geometricPrecision">
      <path
         d="m 404.288,114.9098 0.005,-54.1478 c 10e-5,-0.8626 -0.6988,-1.5616 -1.5614,-1.5616 -0.8625,-1e-4 -1.5615,0.6988 -1.5616,1.5613 l -0.005,54.1479 c -1e-4,0.8625 0.6988,1.5615 1.5614,1.5616 0.8625,1e-4 1.5615,-0.6988 1.5616,-1.5614 z"
         clip-path="url(#1173621464261-clipPath1)"
         id="path158"
         inkscape:connector-curvature="0"
         style="stroke:none" />
      <path
         d="m 404.288,114.9098 0.005,-54.1478 c 10e-5,-0.8626 -0.6988,-1.5616 -1.5614,-1.5616 -0.8625,-1e-4 -1.5615,0.6988 -1.5616,1.5613 l -0.005,54.1479 c -1e-4,0.8625 0.6988,1.5615 1.5614,1.5616 0.8625,1e-4 1.5615,-0.6988 1.5616,-1.5614 z"
         clip-path="url(#1173621464530-clipPath1)"
         id="path160"
         inkscape:connector-curvature="0"
         style="fill:#333399;stroke:none" />
    </g>
    <g
       id="g162"
       style="text-rendering:geometricPrecision">
      <path
         d="m 529.2285,331.3466 -0.005,-54.1457 c -2e-4,-0.8626 -0.6991,-1.5614 -1.5617,-1.5613 -0.8626,0 -1.5614,0.6991 -1.5614,1.5616 l 0.005,54.1457 c 10e-5,0.8626 0.6991,1.5614 1.5617,1.5613 0.8625,0 1.5614,-0.699 1.5613,-1.5616 z"
         clip-path="url(#1173621464261-clipPath1)"
         id="path164"
         inkscape:connector-curvature="0"
         style="stroke:none" />
      <path
         d="m 529.2285,331.3466 -0.005,-54.1457 c -2e-4,-0.8626 -0.6991,-1.5614 -1.5617,-1.5613 -0.8626,0 -1.5614,0.6991 -1.5614,1.5616 l 0.005,54.1457 c 10e-5,0.8626 0.6991,1.5614 1.5617,1.5613 0.8625,0 1.5614,-0.699 1.5613,-1.5616 z"
         clip-path="url(#1173621464352-clipPath1)"
         id="path166"
         inkscape:connector-curvature="0"
         style="fill:#333399;stroke:none" />
    </g>
    <g
       id="g168"
       style="fill:#333399;stroke:#333399;text-rendering:geometricPrecision">
      <path
         d="m 465.9672,386.7684 49.1376,-28.3705 c 0.747,-0.4313 1.0028,-1.3861 0.5715,-2.133 -0.4313,-0.747 -1.3861,-1.0029 -2.133,-0.5716 l -49.1377,28.3706 c -0.747,0.4312 -1.0028,1.386 -0.5715,2.133 0.4313,0.747 1.3861,1.0028 2.1331,0.5715 z"
         clip-path="url(#1173621464261-clipPath1)"
         id="path170"
         inkscape:connector-curvature="0"
         style="stroke:none" />
      <path
         d="m 465.9672,386.7684 49.1376,-28.3705 c 0.747,-0.4313 1.0028,-1.3861 0.5715,-2.133 -0.4313,-0.747 -1.3861,-1.0029 -2.133,-0.5716 l -49.1377,28.3706 c -0.747,0.4312 -1.0028,1.386 -0.5715,2.133 0.4313,0.747 1.3861,1.0028 2.1331,0.5715 z"
         clip-path="url(#1173621464839-clipPath1)"
         id="path172"
         inkscape:connector-curvature="0"
         style="fill:#000000;stroke:none" />
    </g>
    <g
       id="g174"
       style="fill:#333333;stroke:#333333;text-rendering:geometricPrecision">
      <path
         d="m 465.1864,385.4161 1.5615,0 8.198,-54.1478 -9.7595,0 -9.7595,0 8.198,54.1478 z"
         clip-path="url(#1173621464261-clipPath1)"
         id="path176"
         inkscape:connector-curvature="0"
         style="stroke:none" />
      <path
         d="m 465.1864,385.4161 1.5615,0 8.198,-54.1478 -9.7595,0 -9.7595,0 8.198,54.1478 z"
         clip-path="url(#1173621464417-clipPath1)"
         id="path178"
         inkscape:connector-curvature="0"
         style="fill:#000000;stroke:none" />
    </g>
    <g
       id="g180"
       style="fill:#ff0000;stroke:#ff0000;text-rendering:geometricPrecision">
      <path
         d="m 457.9119,163.8708 c -0.747,0.4312 -1.0029,1.3859 -0.5717,2.133 0.4312,0.747 1.3859,1.0029 2.133,0.5717 l 50.5335,-29.1697 c 0.7471,-0.4313 1.003,-1.386 0.5718,-2.133 -0.4313,-0.7471 -1.386,-1.003 -2.133,-0.5718 z m 6.5053,11.2697 c -0.747,0.4313 -1.0029,1.386 -0.5717,2.133 0.4312,0.7471 1.3859,1.003 2.133,0.5718 l 50.5336,-29.1697 c 0.747,-0.4313 1.0029,-1.386 0.5717,-2.133 -0.4312,-0.7471 -1.386,-1.003 -2.133,-0.5718 z"
         clip-path="url(#1173621464261-clipPath1)"
         id="path182"
         inkscape:connector-curvature="0"
         style="stroke:none" />
      <path
         d="m 457.9119,163.8708 c -0.747,0.4312 -1.0029,1.3859 -0.5717,2.133 0.4312,0.747 1.3859,1.0029 2.133,0.5717 l 50.5335,-29.1697 c 0.7471,-0.4313 1.003,-1.386 0.5718,-2.133 -0.4313,-0.7471 -1.386,-1.003 -2.133,-0.5718 z m 6.5053,11.2697 c -0.747,0.4313 -1.0029,1.386 -0.5717,2.133 0.4312,0.7471 1.3859,1.003 2.133,0.5718 l 50.5336,-29.1697 c 0.747,-0.4313 1.0029,-1.386 0.5717,-2.133 -0.4312,-0.7471 -1.386,-1.003 -2.133,-0.5718 z"
         clip-path="url(#1173621464321-clipPath1)"
         id="path184"
         inkscape:connector-curvature="0"
         style="fill:#000000;stroke:none" />
    </g>
    <g
       id="g186"
       style="text-rendering:geometricPrecision">
      <path
         d="m 341.026,167.617 -57.0647,-32.9529 c -0.7469,-0.4313 -1.7017,-0.1756 -2.1331,0.5714 -0.4313,0.747 -0.1756,1.7018 0.5714,2.1331 l 57.0646,32.9529 c 0.747,0.4313 1.7018,0.1756 2.1332,-0.5714 0.4313,-0.7469 0.1755,-1.7017 -0.5714,-2.1331 z"
         clip-path="url(#1173621464261-clipPath1)"
         id="path188"
         inkscape:connector-curvature="0"
         style="stroke:none" />
    </g>
    <g
       id="g190"
       style="text-rendering:geometricPrecision">
      <path
         d="M 403.5121,59.4096 346.4474,26.4567 c -0.747,-0.4313 -1.7017,-0.1756 -2.1331,0.5714 -0.4313,0.747 -0.1756,1.7018 0.5714,2.1331 l 57.0646,32.9529 c 0.747,0.4313 1.7018,0.1756 2.1331,-0.5714 0.4314,-0.7469 0.1756,-1.7017 -0.5713,-2.1331 z"
         clip-path="url(#1173621464261-clipPath1)"
         id="path192"
         inkscape:connector-curvature="0"
         style="stroke:none" />
    </g>
    <g
       id="g194"
       style="text-rendering:geometricPrecision">
      <path
         d="m 540.2332,358.3969 43.7242,25.241 c 0.7471,0.4313 1.7018,0.1754 2.1331,-0.5717 0.4312,-0.747 0.1753,-1.7017 -0.5717,-2.133 l -43.7242,-25.2409 c -0.7471,-0.4313 -1.7018,-0.1754 -2.1331,0.5716 -0.4312,0.7471 -0.1754,1.7018 0.5717,2.133 z"
         clip-path="url(#1173621464261-clipPath1)"
         id="path196"
         inkscape:connector-curvature="0"
         style="stroke:none" />
      <path
         d="m 540.2332,358.3969 43.7242,25.241 c 0.7471,0.4313 1.7018,0.1754 2.1331,-0.5717 0.4312,-0.747 0.1753,-1.7017 -0.5717,-2.133 l -43.7242,-25.2409 c -0.7471,-0.4313 -1.7018,-0.1754 -2.1331,0.5716 -0.4312,0.7471 -0.1754,1.7018 0.5717,2.133 z"
         clip-path="url(#1173621464880-clipPath1)"
         id="path198"
         inkscape:connector-curvature="0"
         style="fill:#333399;stroke:none" />
    </g>
    <g
       id="g200"
       style="fill:#ffffff;stroke:#ffffff;text-rendering:geometricPrecision">
      <path
         d="m 526.3631,337.5927 c -3.2441,0 -5.874,2.6299 -5.874,5.8741 l 0,11.748 c 0,3.2442 2.6299,5.874 5.874,5.874 l 2.6113,0 c 3.2442,0 5.874,-2.6298 5.874,-5.874 l 0,-11.748 c 0,-3.2442 -2.6298,-5.8741 -5.874,-5.8741 z"
         clip-path="url(#1173621464261-clipPath1)"
         id="path202"
         inkscape:connector-curvature="0"
         style="stroke:none" />
    </g>
    <g
       font-size="25px"
       transform="translate(518.4891,334.3408)"
       id="g204"
       style="font-size:25px;font-family:sans-serif;fill:#333399;stroke:#333399;text-rendering:geometricPrecision">
      <text
         x="0"
         xml:space="preserve"
         y="24"
         clip-path="url(#1173621464101-clipPath1)"
         id="text206"
         style="stroke:none">N</text>
    </g>
    <g
       font-size="25px"
       id="g208"
       style="font-size:25px;font-family:sans-serif;fill:#ffffff;stroke:#ffffff;text-rendering:geometricPrecision">
      <path
         d="m 284.4664,550.4785 c -3.2441,0 -5.874,2.6299 -5.874,5.874 l 0,11.7481 c 0,3.2441 2.6299,5.874 5.874,5.874 l 21.6113,0 c 3.2442,0 5.8741,-2.6299 5.8741,-5.874 l 0,-11.7481 c 0,-3.2441 -2.6299,-5.874 -5.8741,-5.874 z"
         clip-path="url(#1173621464261-clipPath1)"
         id="path210"
         inkscape:connector-curvature="0"
         style="stroke:none" />
      <text
         x="0"
         y="24"
         transform="translate(277.0924,547.2266)"
         clip-path="url(#1173621464205-clipPath1)"
         xml:space="preserve"
         id="text212"
         style="fill:#333399;stroke:none">HN</text>
    </g>
    <g
       font-size="25px"
       id="g214"
       style="font-size:25px;font-family:sans-serif;fill:#ffffff;stroke:#ffffff;text-rendering:geometricPrecision">
      <path
         d="m 463.9276,301.5262 c -3.2441,0 -5.874,2.6299 -5.874,5.874 l 0,11.7481 c 0,3.2441 2.6299,5.874 5.874,5.874 l 2.5176,0 c 3.2441,0 5.874,-2.6299 5.874,-5.874 l 0,-11.7481 c 0,-3.2441 -2.6299,-5.874 -5.874,-5.874 z"
         clip-path="url(#1173621464261-clipPath1)"
         id="path216"
         inkscape:connector-curvature="0"
         style="stroke:none" />
      <text
         x="0"
         y="24"
         transform="translate(456.0536,298.2743)"
         clip-path="url(#1173621464746-clipPath1)"
         xml:space="preserve"
         id="text218"
         style="fill:#333333;stroke:none">H</text>
    </g>
    <g
       font-size="25px"
       id="g220"
       style="font-size:25px;font-family:sans-serif;fill:#ffffff;stroke:#ffffff;text-rendering:geometricPrecision">
      <path
         d="m 401.4568,193.303 c -3.2442,0 -5.8741,2.6299 -5.8741,5.874 l 0,11.7481 c 0,3.2441 2.6299,5.874 5.8741,5.874 l 2.5175,0 c 3.2442,0 5.8741,-2.6299 5.8741,-5.874 l 0,-11.7481 c 0,-3.2441 -2.6299,-5.874 -5.8741,-5.874 z"
         clip-path="url(#1173621464261-clipPath1)"
         id="path222"
         inkscape:connector-curvature="0"
         style="stroke:none" />
      <text
         x="0"
         y="24"
         transform="translate(393.5827,190.051)"
         clip-path="url(#1173621464591-clipPath1)"
         xml:space="preserve"
         id="text224"
         style="fill:#333333;stroke:none">H</text>
    </g>
    <g
       font-size="25px"
       id="g226"
       style="font-size:25px;font-family:sans-serif;fill:#ffffff;stroke:#ffffff;text-rendering:geometricPrecision">
      <path
         d="m 401.4193,121.1557 c -3.2442,0 -5.874,2.6299 -5.874,5.874 l 0,11.7481 c 0,3.2441 2.6298,5.874 5.874,5.874 l 2.6113,0 c 3.2441,0 5.874,-2.6299 5.874,-5.874 l 0,-11.7481 c 0,-3.2441 -2.6299,-5.874 -5.874,-5.874 z"
         clip-path="url(#1173621464261-clipPath1)"
         id="path228"
         inkscape:connector-curvature="0"
         style="stroke:none" />
      <text
         x="0"
         y="24"
         transform="translate(393.5453,117.9037)"
         clip-path="url(#1173621464765-clipPath1)"
         xml:space="preserve"
         id="text230"
         style="fill:#333399;stroke:none">N</text>
    </g>
    <g
       font-size="25px"
       id="g232"
       style="font-size:25px;font-family:sans-serif;fill:#ffffff;stroke:#ffffff;text-rendering:geometricPrecision">
      <path
         d="m 525.0641,120.815 c -3.406,0 -6.167,2.761 -6.167,6.167 l 0,12.3339 c 0,3.406 2.761,6.167 6.167,6.167 l 5.2285,0 c 3.4059,0 6.167,-2.761 6.167,-6.167 l 0,-12.3339 c 0,-3.406 -2.7611,-6.167 -6.167,-6.167 z"
         clip-path="url(#1173621464261-clipPath1)"
         id="path234"
         inkscape:connector-curvature="0"
         style="stroke:none" />
      <text
         x="0"
         y="24"
         transform="translate(518.3971,117.9146)"
         clip-path="url(#1173621464912-clipPath1)"
         xml:space="preserve"
         id="text236"
         style="fill:#ff0000;stroke:none">O</text>
    </g>
  </g>
</svg>
